<svg width="120" height="121" viewBox="0 0 120 121" fill="none" xmlns="http://www.w3.org/2000/svg">
<rect y="60.8784" width="84.8528" height="84.8528" rx="26" transform="rotate(-45 0 60.8784)" fill="#03665E"/>
<path d="M60.0333 102.456C82.879 102.456 101.399 83.9362 101.399 61.0906C101.399 38.2449 82.879 19.7249 60.0333 19.7249C37.1877 19.7249 18.6676 38.2449 18.6676 61.0906C18.6676 83.9362 37.1877 102.456 60.0333 102.456Z" fill="#D8CCC3"/>
<path fill-rule="evenodd" clip-rule="evenodd" d="M60.0334 102.456C82.8789 102.456 101.399 83.9363 101.399 61.0906C101.399 38.2449 82.8789 19.7249 60.0334 19.7249C37.1877 19.7249 18.6676 38.2449 18.6676 61.0906C18.6676 83.9363 37.1877 102.456 60.0334 102.456ZM73.9404 46.9896C73.9404 42.4273 70.941 38.6877 66.5329 37.7542C65.9858 37.6382 65.3938 37.5414 64.9819 37.4962C64.7947 37.4755 64.645 37.4655 64.5533 37.4692C62.0767 37.5685 59.3536 38.79 57.7993 40.4989C57.1175 41.2483 54.6167 45.3726 50.16 53.0975C50.0036 53.3755 49.9146 53.6966 49.9146 54.0383C49.9146 55.0996 50.7756 55.9599 51.8375 55.9599C52.6667 55.9599 53.3733 55.4354 53.6431 54.7003C57.794 47.5482 60.0303 43.7668 60.3858 43.298C61.0401 42.4355 62.8076 41.5009 64.0655 41.3524C67.8224 40.9094 71.007 44.5765 70.0395 48.2317C69.8579 48.9172 67.2198 53.6995 62.9384 61.1029L62.6997 61.5156L62.6973 61.5198C56.801 71.7168 55.7754 73.4907 54.7947 73.466C54.5883 73.4608 54.384 73.376 54.1363 73.2731L54.0885 73.2534C53.1351 72.8587 52.7049 71.8107 53.1056 70.8594C53.2662 70.4781 55.6782 66.2329 58.466 61.4254C61.7162 55.82 63.5732 52.4033 63.6431 51.9009C63.732 51.2596 63.652 51.0181 63.2023 50.5685C62.4742 49.841 61.1986 49.8075 60.5524 50.4988C60.0407 51.0464 50.2058 67.96 49.55 69.4202C48.6577 71.4072 49.2195 74.1422 50.8261 75.6329C53.1064 77.7486 56.6723 77.7122 58.7255 75.5521C59.0892 75.1695 61.3749 71.4103 63.8049 67.1977L64.9097 65.2833C72.8192 51.5758 73.8118 49.8558 73.9276 48.0786C73.9442 47.8234 73.9428 47.5673 73.9412 47.2743C73.9407 47.1834 73.9404 47.0887 73.9404 46.9896ZM48.2093 64.1259C48.4416 63.811 48.5789 63.4218 48.5789 63.0004C48.5789 61.9519 47.7284 61.1019 46.6791 61.1019C45.9268 61.1019 45.2764 61.5392 44.9688 62.1732C43.6108 64.5729 42.702 66.2099 42.5769 66.4937C40.511 71.178 41.588 76.5763 45.3329 80.3081C47.832 82.7978 50.5688 84.1056 54.2326 84.5606C58.177 85.0505 61.57 83.6831 64.4656 80.4365C64.8339 80.0236 66.8786 76.8792 66.7759 76.817C66.8366 76.6316 66.8695 76.4338 66.8695 76.2282C66.8695 75.1837 66.0223 74.3372 64.9772 74.3372C64.445 74.3372 63.9642 74.5567 63.6203 74.9101C63.3988 75.1378 63.2984 75.3254 63.2343 75.4452C63.2185 75.4747 63.205 75.4999 63.1924 75.5207C62.5602 76.5652 62.1268 77.258 61.977 77.457C59.2148 81.1274 53.6469 82.0252 49.6515 79.4447C45.9797 77.073 44.4159 72.203 46.043 68.2068C46.2446 67.7118 47.1213 66.0674 48.2093 64.1259ZM75.3748 54.8681C75.1664 55.0993 72.254 60.0272 68.9033 65.8189C68.8754 65.8668 68.8474 65.9146 68.8196 65.9622C68.5605 66.4029 68.3067 66.835 68.3067 67.3714C68.3067 68.4326 69.1677 69.293 70.2296 69.293C71.0061 69.293 71.6749 68.8332 71.9786 68.1713C75.3819 62.3162 78.6339 56.4921 78.6339 56.0378C78.6339 55.2573 78.2396 54.7015 77.4533 54.3731C76.6434 54.0349 75.9837 54.1918 75.3748 54.8681Z" fill="#03665E"/>
</svg>
