<svg width="52" height="18" viewBox="0 0 52 18" fill="none" xmlns="http://www.w3.org/2000/svg">
<g clip-path="url(#clip0_117_4577)">
<path d="M5.23965 13.8784V6.53283H2.3428V4.82576H10.2315V6.53283H7.33469V13.8784H5.23965ZM16.8969 14.0336C16.1813 14.0336 15.5217 13.9215 14.9182 13.6974C14.3233 13.4646 13.8017 13.137 13.3534 12.7145C12.9137 12.292 12.5688 11.7963 12.3188 11.2273C12.0774 10.6583 11.9567 10.0332 11.9567 9.35209C11.9567 8.67098 12.0774 8.04592 12.3188 7.4769C12.5688 6.90787 12.918 6.41213 13.3663 5.98967C13.8146 5.56722 14.3406 5.24391 14.9441 5.01975C15.5476 4.78696 16.2114 4.67057 16.9357 4.67057C17.7375 4.67057 18.4574 4.80421 19.0954 5.07148C19.742 5.33874 20.2851 5.72672 20.7248 6.23539L19.3799 7.4769C19.0523 7.13203 18.6945 6.8777 18.3065 6.71389C17.9185 6.54145 17.4961 6.45524 17.0391 6.45524C16.5994 6.45524 16.1985 6.52421 15.8364 6.66216C15.4743 6.8001 15.1596 6.9984 14.8923 7.25705C14.6337 7.51569 14.4311 7.82176 14.2845 8.17524C14.1466 8.52873 14.0776 8.92101 14.0776 9.35209C14.0776 9.77455 14.1466 10.1625 14.2845 10.516C14.4311 10.8695 14.6337 11.1799 14.8923 11.4471C15.1596 11.7058 15.47 11.9041 15.8235 12.042C16.1856 12.18 16.5822 12.2489 17.0133 12.2489C17.4271 12.2489 17.828 12.1843 18.216 12.055C18.6126 11.917 18.9962 11.6885 19.3669 11.3695L20.5567 12.8826C20.0653 13.2534 19.492 13.5379 18.8367 13.7362C18.1901 13.9345 17.5435 14.0336 16.8969 14.0336ZM18.6427 12.611V9.20983H20.5567V12.8826L18.6427 12.611ZM25.7359 8.89946H30.0812V10.5807H25.7359V8.89946ZM25.8911 13.8784H23.7961V4.82576H30.6373V6.50697H25.8911V13.8784ZM33.3489 13.8784V4.82576H37.2674C38.0778 4.82576 38.7761 4.95939 39.3624 5.22666C39.9487 5.48531 40.4013 5.86035 40.7203 6.35178C41.0393 6.84321 41.1988 7.42948 41.1988 8.11058C41.1988 8.78306 41.0393 9.36502 40.7203 9.85645C40.4013 10.3393 39.9487 10.71 39.3624 10.9686C38.7761 11.2273 38.0778 11.3566 37.2674 11.3566H34.5128L35.4439 10.4384V13.8784H33.3489ZM39.1038 13.8784L36.8406 10.5936H39.0779L41.3669 13.8784H39.1038ZM35.4439 10.6712L34.5128 9.68833H37.151C37.7976 9.68833 38.2804 9.55039 38.5994 9.2745C38.9184 8.98998 39.0779 8.60201 39.0779 8.11058C39.0779 7.61053 38.9184 7.22256 38.5994 6.94667C38.2804 6.67078 37.7976 6.53283 37.151 6.53283H34.5128L35.4439 5.53704V10.6712ZM43.2427 15.0423V13.8784H49.7089V15.0423H43.2427Z" fill="#D8CCC3"/>
</g>
<defs>
<clipPath id="clip0_117_4577">
<rect width="50.2925" height="17.2432" fill="white" transform="translate(0.853729 0.756836)"/>
</clipPath>
</defs>
</svg>
