<svg width="24" height="24" viewBox="0 0 24 24" fill="none" xmlns="http://www.w3.org/2000/svg">
<path d="M9.25 16.05C8.60833 16.05 8.06597 15.8325 7.62292 15.3975C7.17986 14.9625 6.95833 14.43 6.95833 13.8C6.95833 13.17 7.17986 12.6375 7.62292 12.2025C8.06597 11.7675 8.60833 11.55 9.25 11.55C9.89167 11.55 10.434 11.7675 10.8771 12.2025C11.3201 12.6375 11.5417 13.17 11.5417 13.8C11.5417 14.43 11.3201 14.9625 10.8771 15.3975C10.434 15.8325 9.89167 16.05 9.25 16.05ZM5.58333 21C5.07917 21 4.64757 20.8238 4.28854 20.4713C3.92951 20.1188 3.75 19.695 3.75 19.2V6.6C3.75 6.105 3.92951 5.68125 4.28854 5.32875C4.64757 4.97625 5.07917 4.8 5.58333 4.8H6.5V3H8.33333V4.8H15.6667V3H17.5V4.8H18.4167C18.9208 4.8 19.3524 4.97625 19.7115 5.32875C20.0705 5.68125 20.25 6.105 20.25 6.6V19.2C20.25 19.695 20.0705 20.1188 19.7115 20.4713C19.3524 20.8238 18.9208 21 18.4167 21H5.58333ZM5.58333 19.2H18.4167V10.2H5.58333V19.2Z" fill="#000"/>
</svg>
