<svg width="16" height="16" viewBox="0 0 16 16" fill="none" xmlns="http://www.w3.org/2000/svg">
<path d="M6.16667 10.7C5.73889 10.7 5.37731 10.555 5.08194 10.265C4.78657 9.975 4.63889 9.62 4.63889 9.2C4.63889 8.78 4.78657 8.425 5.08194 8.135C5.37731 7.845 5.73889 7.7 6.16667 7.7C6.59444 7.7 6.95602 7.845 7.25139 8.135C7.54676 8.425 7.69444 8.78 7.69444 9.2C7.69444 9.62 7.54676 9.975 7.25139 10.265C6.95602 10.555 6.59444 10.7 6.16667 10.7ZM3.72222 14C3.38611 14 3.09838 13.8825 2.85903 13.6475C2.61968 13.4125 2.5 13.13 2.5 12.8V4.4C2.5 4.07 2.61968 3.7875 2.85903 3.5525C3.09838 3.3175 3.38611 3.2 3.72222 3.2H4.33333V2H5.55556V3.2H10.4444V2H11.6667V3.2H12.2778C12.6139 3.2 12.9016 3.3175 13.141 3.5525C13.3803 3.7875 13.5 4.07 13.5 4.4V12.8C13.5 13.13 13.3803 13.4125 13.141 13.6475C12.9016 13.8825 12.6139 14 12.2778 14H3.72222ZM3.72222 12.8H12.2778V6.8H3.72222V12.8Z" fill="#000"/>
</svg>
