<svg width="24" height="24" viewBox="0 0 24 24" fill="none" xmlns="http://www.w3.org/2000/svg">
<rect x="1" y="1" width="22" height="22" rx="11" fill="#26827C"/>
<rect x="1" y="1" width="22" height="22" rx="11" stroke="#339993" stroke-width="2"/>
<path fill-rule="evenodd" clip-rule="evenodd" d="M17.3201 9.01573C17.5153 9.211 17.5153 9.52758 17.3201 9.72284L11.4373 15.6056C10.8533 16.1896 9.90712 16.1917 9.32061 15.6102L6.68173 12.994C6.48563 12.7996 6.48427 12.483 6.67869 12.2869L7.38274 11.5767C7.57716 11.3806 7.89374 11.3793 8.08984 11.5737L10.0216 13.4889C10.2171 13.6827 10.5325 13.682 10.7272 13.4873L15.9059 8.30863C16.1011 8.11337 16.4177 8.11337 16.613 8.30863L17.3201 9.01573Z" fill="#F4F2F1"/>
</svg>
