<svg width="25" height="24" viewBox="0 0 25 24" fill="none" xmlns="http://www.w3.org/2000/svg">
<g clip-path="url(#clip0_29_24271)">
<rect x="20.6118" y="2.38361" width="2" height="25.0624" rx="0.4" transform="rotate(44.3768 20.6118 2.38361)" fill="#D8CCC3"/>
<path fill-rule="evenodd" clip-rule="evenodd" d="M1.5 12C3.23 7.61 7.5 4.5 12.5 4.5C15.0047 4.5 17.3262 5.28041 19.237 6.6112L16.6673 9.23735C15.7714 7.88917 14.2389 7 12.5 7C9.74 7 7.5 9.24 7.5 12C7.5 13.7778 8.42942 15.3399 9.82856 16.2265L7.64515 18.4579C4.84818 17.1935 2.63115 14.8704 1.5 12ZM9.74106 19.1756C10.6261 19.3877 11.5499 19.5 12.5 19.5C17.5 19.5 21.77 16.39 23.5 12C22.8863 10.4427 21.953 9.04651 20.7809 7.89305L17.4508 11.2963C17.4832 11.5263 17.5 11.7612 17.5 12C17.5 14.76 15.26 17 12.5 17C12.2984 17 12.0996 16.9881 11.9043 16.9648L9.74106 19.1756ZM15.2156 10.721L11.2804 14.7428C10.2302 14.2765 9.5 13.2254 9.5 12C9.5 10.34 10.84 9 12.5 9C13.7022 9 14.7365 9.7028 15.2156 10.721Z" fill="#D8CCC3"/>
</g>
<defs>
<clipPath id="clip0_29_24271">
<rect width="24" height="24" fill="white" transform="translate(0.5)"/>
</clipPath>
</defs>
</svg>
